<svg width="1em" height="1em" viewBox="0 0 20 20" xmlns="http://www.w3.org/2000/svg" xmlns:xlink="http://www.w3.org/1999/xlink" role="img"><defs><path d="M16.627 17H3.335C2.045 16.995 1 15.96 1 14.687V7.645c.02-1.26 1.059-2.27 2.335-2.276h2.013l.494-1.433A1.451 1.451 0 017.17 3h5.658a1.442 1.442 0 011.33.936l.512 1.461h1.965c1.288-.01 2.343 1.006 2.364 2.276v7.014c0 .618-.25 1.21-.697 1.645a2.362 2.362 0 01-1.676.668zM3.335 6.774a.944.944 0 00-.949.87v7.043c0 .517.425.936.95.936h13.29c.525 0 .95-.419.95-.936V7.645a.944.944 0 00-.95-.871h-2.012a1.442 1.442 0 01-1.33-.937l-.512-1.451h-5.64l-.455 1.47a1.442 1.442 0 01-1.329.937l-2.013-.02zm6.646 8.25a4.027 4.027 0 01-3.726-2.445 3.931 3.931 0 01.867-4.33 4.066 4.066 0 014.388-.865 3.97 3.97 0 012.487 3.67c0 2.189-1.797 3.965-4.016 3.97zm0-6.555a2.602 2.602 0 00-2.41 1.58 2.54 2.54 0 00.561 2.8 2.628 2.628 0 002.84.554 2.566 2.566 0 001.6-2.378c-.015-1.4-1.17-2.528-2.591-2.528v-.028zm5.687.936a.95.95 0 01-.882-.573.927.927 0 01.202-1.023.959.959 0 011.035-.206.936.936 0 01.314 1.528.95.95 0 01-.669.274z" id="camera-regular_svg__a"></path></defs><use fill="currentColor" xlink:href="#camera-regular_svg__a" fill-rule="evenodd"></use></svg>