<svg x="0px" y="0px" viewBox="0 0 512 512"><path d="M342.6,480.4v-68.8h27.5c13.4,0,24.2-10.8,24.2-24.3V161.4H118.9v225.9c0,13.4,10.8,24.3,24.1,24.3h27.6v68.8c0,17.4,13.9,31.6,31,31.6s30.9-14.2,30.9-31.6v-68.8h48.1v68.8c0,17.4,13.9,31.6,31,31.6C328.7,512,342.6,497.8,342.6,480.4z"></path><path d="M69.3,347.4c17.2,0,31-14.2,31-31.6V192.1c0-17.4-13.8-31.6-31-31.6c-17.1,0-30.9,14.2-30.9,31.6v123.7C38.4,333.2,52.2,347.4,69.3,347.4z"></path><path d="M321.3,44.4l25.5-37.2c1.5-2.2,1.2-5.1-0.8-6.4c-2-1.3-4.8-0.7-6.4,1.5l-26.4,38.7C295.7,33.9,276.4,30,256,30s-39.7,3.9-57.1,10.8L172.5,2.2c-1.6-2.2-4.4-2.8-6.4-1.5c-2,1.4-2.3,4.3-0.8,6.4l25.5,37.2c-40.5,18.9-68.8,54.9-72.4,96.9h275.4C390.1,99.3,361.7,63.3,321.3,44.4z M197.9,102.9c-8.4,0-15.3-6.8-15.3-15.4c0-8.4,6.8-15.3,15.3-15.3c8.4,0,15.3,6.8,15.3,15.3C213.2,96.1,206.3,102.9,197.9,102.9z M316,102.9c-8.4,0-15.2-6.8-15.2-15.4c0-8.4,6.8-15.3,15.2-15.3c8.5,0,15.3,6.8,15.3,15.3C331.2,96.1,324.4,102.9,316,102.9z"></path><path d="M442.6,160.4c-17.1,0-30.9,14.2-30.9,31.6v123.7c0,17.4,13.8,31.6,30.9,31.6s31-14.2,31-31.6V192.1C473.6,174.6,459.7,160.4,442.6,160.4z"></path></svg>