<svg x="0px" y="0px" viewBox="0 0 512 512"><path d="M462.8,171.8c-26.6-32.9-63.9-51.9-99.2-51.9c-46.6,0-66.3,22.1-98.7,22.1c-33.3,0-58.7-22-99-22c-39.6,0-81.8,23.9-108.4,64.6C19.8,242,26.3,349.8,87.2,441.9c21.8,32.8,50.9,69.8,88.9,70.1c33.8,0.3,43.4-21.3,89.3-21.6c45.9-0.3,54.6,21.8,88.4,21.5c38-0.3,68.8-41.3,90.5-74.2c15.6-23.5,21.4-35.5,33.5-62.1C389.8,342.6,375.6,219.2,462.8,171.8z"></path><path d="M274.4,42.1c-17.1,20.7-31.3,51.4-25.8,81.1c30.2,1,61.4-16.9,79.6-40c17-21.6,29.8-52.1,25.2-83.1C325.7,1.9,293.3,19.4,274.4,42.1z"></path></svg>